<svg xmlns="http://www.w3.org/2000/svg" width="32" height="32"><path fill="#DC4A38" d="M0 0h32v32H0z"/><g fill="#FFF"><path d="M16.964 17.13l-.99-.77c-.302-.25-.716-.58-.716-1.187 0-.608.412-.993.772-1.353 1.154-.908 2.31-1.877 2.31-3.916 0-2.096-1.32-3.197-1.952-3.72h1.706l1.788-1.126H14.46c-1.487 0-3.632.352-5.2 1.648-1.184 1.022-1.76 2.43-1.76 3.696 0 2.15 1.65 4.33 4.566 4.33.274 0 .576-.027.88-.057-.138.33-.274.606-.274 1.075 0 .854.44 1.378.826 1.873-1.238.085-3.553.222-5.256 1.27-1.624.966-2.117 2.372-2.117 3.363 0 2.04 1.924 3.943 5.914 3.943 4.73 0 7.235-2.62 7.235-5.212 0-1.9-1.1-2.84-2.31-3.858zm-3.605-3.17c-2.367 0-3.44-3.062-3.44-4.908 0-.72.137-1.46.606-2.04.44-.553 1.21-.91 1.928-.91 2.28 0 3.465 3.088 3.465 5.072 0 .496-.056 1.378-.69 2.014-.44.442-1.182.77-1.87.77zm.03 11.086c-2.944 0-4.844-1.407-4.844-3.364 0-1.96 1.76-2.62 2.366-2.84 1.154-.39 2.64-.44 2.89-.44.274 0 .41 0 .632.025 2.092 1.49 3 2.23 3 3.642 0 1.703-1.405 2.976-4.045 2.976zM23.912 13.917V11.16h-1.36v2.757h-2.753v1.376h2.75v2.773h1.362v-2.773h2.766v-1.376"/></g></svg>