<svg xmlns="https://www.w3.org/2000/svg" width="32" height="32"><linearGradient id="a" gradientUnits="userSpaceOnUse" x1="16" y1="32" x2="16"><stop offset="0" stop-color="#EDEDED"/><stop offset="1" stop-color="#FFF"/></linearGradient><path fill="url(#a)" d="M0 0h32v32H0z"/><path fill="#EE4056" d="M16.005 6.244c2.927 0 5.854-.002 8.782 0 1.396.002 2.195.78 2.188 2.165-.015 2.486.116 4.988-.11 7.457-.75 8.204-10.027 12.607-16.91 8.064-3.086-2.036-4.82-4.925-4.917-8.672-.06-2.34-.034-4.684-.018-7.025.008-1.214.812-1.98 2.056-1.983 2.975-.01 5.952-.004 8.93-.006zm-5.037 5.483c-.867.093-1.365.396-1.62 1.025-.27.67-.078 1.256.417 1.732 1.688 1.62 3.378 3.238 5.09 4.838.745.695 1.537.687 2.278-.01 1.654-1.55 3.298-3.112 4.93-4.686.827-.797.91-1.714.252-2.38-.694-.704-1.583-.647-2.447.17-1.097 1.04-2.215 2.06-3.266 3.143-.485.495-.77.435-1.227-.024-1.1-1.107-2.234-2.18-3.39-3.225-.325-.29-.77-.447-1.017-.583z"/></svg>
