<svg xmlns="https://www.w3.org/2000/svg" width="32" height="32"><path fill="#CEE3F8" d="M0 0h32v32H0z"/><path fill="#FFF" d="M25.596 13.425c1.3 0 2.35 1.05 2.35 2.35 0 .99-.62 1.84-1.49 2.18-.318-1.39-1.28-2.66-2.68-3.65.417-.54 1.077-.88 1.82-.88zM23.773 14.305c1.4.99 2.36 2.26 2.68 3.65-.27.102-.56.16-.857.16-1.29 0-2.34-1.05-2.34-2.34 0-.56.187-1.07.517-1.47z"/><circle fill="#FFF" cx="24.425" cy="7.915" r="1.85"/><path fill="#FF4500" d="M19.766 15.915c.938 0 1.71.79 1.71 1.74 0 .94-.772 1.71-1.71 1.71-.95 0-1.74-.77-1.74-1.71-.003-.95.786-1.74 1.74-1.74zM13.975 17.654c0 .94-.76 1.71-1.71 1.71-.94 0-1.73-.77-1.73-1.71 0-.95.79-1.74 1.73-1.74.95 0 1.71.79 1.71 1.74z"/><path fill="#FFF" d="M21.475 17.654c0-.95-.77-1.74-1.71-1.74-.95 0-1.74.79-1.74 1.74 0 .94.79 1.71 1.74 1.71.94 0 1.71-.768 1.71-1.71zm-15.07.46c1.288 0 2.35-1.05 2.35-2.34 0-.58-.21-1.11-.56-1.51 1.94-1.36 4.7-2.2 7.76-2.2 3.1 0 5.88.86 7.82 2.24-.33.4-.522.91-.522 1.47 0 1.29 1.052 2.34 2.34 2.34.302 0 .593-.06.86-.16.08.34.12.69.12 1.04 0 3.842-4.75 6.94-10.62 6.94s-10.63-3.1-10.63-6.94c0-.37.04-.73.13-1.08.29.13.61.2.95.2zm5.86-2.2c-.94 0-1.73.792-1.73 1.74 0 .94.79 1.712 1.73 1.712.95 0 1.71-.77 1.71-1.712 0-.95-.76-1.74-1.71-1.74z"/><path fill="#FFF" d="M8.755 15.774c0 1.29-1.06 2.34-2.35 2.34-.34 0-.66-.07-.95-.2.33-1.4 1.318-2.67 2.738-3.65.35.4.562.93.562 1.51z"/><path fill="#FFF" d="M8.193 14.265c-1.42.98-2.41 2.25-2.74 3.65-.818-.358-1.398-1.18-1.398-2.14 0-1.3 1.05-2.35 2.35-2.35.72 0 1.36.32 1.788.84z"/><g fill="none" stroke="#000" stroke-width="1.1"><path d="M5.454 17.914c-.82-.358-1.4-1.18-1.4-2.14 0-1.3 1.052-2.35 2.35-2.35.722 0 1.362.32 1.792.84M23.773 14.305c.42-.54 1.08-.88 1.818-.88 1.302 0 2.353 1.05 2.353 2.35 0 .99-.62 1.84-1.49 2.18"/><path stroke-linecap="round" stroke-linejoin="round" d="M22.505 7.535l-4.688-1.1-1.73 5.45"/><circle cx="24.425" cy="7.915" r="1.85"/><path d="M8.193 14.265c1.94-1.36 4.7-2.2 7.76-2.2 3.102 0 5.88.86 7.82 2.24 1.4.99 2.36 2.26 2.68 3.65.08.34.12.69.12 1.04 0 3.84-4.75 6.94-10.62 6.94s-10.63-3.1-10.63-6.94c0-.37.04-.73.13-1.08.33-1.4 1.32-2.67 2.74-3.65z"/><path stroke-linecap="round" d="M12.324 22.195c.93.92 2.42 1.1 3.66 1.1M19.675 22.195c-.93.92-2.42 1.1-3.66 1.1"/></g></svg>
